<svg width="200" height="306" viewBox="0 0 200 306" fill="none" xmlns="http://www.w3.org/2000/svg">
<rect width="200" height="305.569" fill="#B3E2D1"/>
<path d="M68 206.333H148V195.667H68.064C65.6 195.603 62.6667 194.627 62.6667 190.333C62.6667 186.04 65.6 185.064 68.064 185H148V110.333C148 104.451 143.216 99.6666 137.333 99.6666H68C61.568 99.6666 52 103.928 52 115.667V190.333C52 202.072 61.568 206.333 68 206.333ZM62.6667 131.667V115.667C62.6667 111.373 65.6 110.397 68 110.333H137.333V174.333H62.6667V131.667Z" fill="#2AAC83"/>
<path d="M78.6667 121H126.667V131.667H78.6667V121Z" fill="#009D71"/>
</svg>
